# AST/ASF file generated using VICON BodyLanguage
# -----------------------------------------------
:version 1.10
:name VICON
:units
  mass 1.0
  length 0.45
  angle deg
:documentation
   .ast/.asf automatically generated from VICON data using
   VICON BodyBuilder and BodyLanguage model FoxedUp or BRILLIANT.MOD
:root
   order TX TY TZ RX RY RZ
   axis XYZ
   position 0 0 0  
   orientation 0 0 0 
:bonedata
  begin
     id 1 
     name lhipjoint
     direction 0.692814 -0.645514 0.321437 
     length 2.38754 
     axis 0 0 0  XYZ
  end
  begin
     id 2 
     name lfemur
     direction 0.34202 -0.939693 0  
     length 6.41921  
     axis 0 0 20  XYZ
    dof rx ry rz
    limits (-160.0 20.0)
           (-70.0 70.0)
           (-60.0 70.0)
  end
  begin
     id 3 
     name ltibia
     direction 0.34202 -0.939693 0   
     length 6.98247   
     axis 0 0 20   XYZ
    dof rx
    limits (-10.0 170.0)
  end
  begin
     id 4 
     name lfoot
     direction 0.0947186 -0.260237 0.960888   
     length 1.83034   
     axis -90 7.62852e-016 20   XYZ
    dof rx rz
    limits (-45.0 90.0)
           (-70.0 20.0)
  end
  begin
     id 5 
     name ltoes
     direction 1.53538e-011 -4.21952e-011 1   
     length 0.920499   
     axis -90 7.62852e-016 20   XYZ
    dof rx
    limits (-90.0 20.0)
  end
  begin
     id 6 
     name rhipjoint
     direction -0.631686 -0.693949 0.345555   
     length 2.2209  
     axis 0 0 0  XYZ 
  end
  begin
     id 7 
     name rfemur
     direction -0.34202 -0.939693 0   
     length 6.49542   
     axis 0 0 -20   XYZ
    dof rx ry rz
    limits (-160.0 20.0)
           (-70.0 70.0)
           (-70.0 60.0)
  end
  begin
     id 8 
     name rtibia
     direction -0.34202 -0.939693 0   
     length 7.21712   
     axis 0 0 -20   XYZ
    dof rx
    limits (-10.0 170.0)
 end
 begin
     id 9 
     name rfoot
     direction -0.0825378 -0.226771 0.970444   
     length 1.89724  
     axis -90 -7.62852e-016 -20   XYZ
    dof rx rz
    limits (-45.0 90.0)
           (-20.0 70.0)
  end
  begin
     id 10 
     name rtoes
     direction -1.53515e-011 -4.22016e-011 1   
     length 0.955868   
     axis -90 -7.62852e-016 -20   XYZ
    dof rx
    limits (-90.0 20.0)
  end
  begin
     id 11 
     name lowerback
     direction -0.0104711 0.984802 -0.173368   
     length 1.84931   
     axis 0 0 0   XYZ
    dof rx ry rz
    limits (-20.0 45.0)
           (-30.0 30.0)
           (-30.0 30.0)
  end
  begin
     id 12 
     name upperback
     direction -0.00286433 0.999996 -0.000382853   
     length 1.85768   
     axis 0 0 0   XYZ
    dof rx ry rz
    limits (-20.0 45.0)
           (-30.0 30.0)
           (-30.0 30.0)
  end
  begin
     id 13 
     name thorax
     direction 0.00167534 0.996793 0.0800069   
     length 1.92   
     axis 0 0 0   XYZ
    dof rx ry rz
    limits (-20.0 45.0)
           (-30.0 30.0)
           (-30.0 30.0)
  end
  begin
     id 14 
     name lowerneck
     direction -0.0672491 0.995415 0.068018   
     length 1.58923   
     axis 0 0 0   XYZ
    dof rx ry rz
    limits (-20.0 45.0)
           (-30.0 30.0)
           (-30.0 30.0)
  end
  begin
     id 15 
     name upperneck
     direction 0.0958019 0.982476 -0.159884   
     length 1.60189   
     axis 0 0 0   XYZ
    dof rx ry rz
    limits (-20.0 45.0)
           (-30.0 30.0)
           (-30.0 30.0)
  end
  begin
     id 16
     name head
     direction 0.032989 0.997338 -0.0650226  
     length 1.61681  
     axis 0 0 0   XYZ
    dof rx ry rz
    limits (-20.0 45.0)
           (-30.0 30.0)
           (-30.0 30.0)
  end
  begin
     id 17 
     name lclavicle
     direction 0.954279 0.298875 -0.00496069  
     length 2.99449  
     axis 0 0 0   XYZ
    dof ry rz
    limits (-20.0 10.0)
           (0.0 20.0)
  end
  begin
     id 18 
     name lhumerus
     direction 1 -4.48985e-011 -4.2057e-027   
     length 4.79185   
     axis 180 -30 -90   XYZ
    dof rx ry rz
    limits (-60.0 90.0)
           (-90.0 90.0)
           (-90.0 90.0)
  end
  begin
     id 19
     name lradius
     direction 1 -4.48945e-011 1.15441e-028   
     length 2.65553   
     axis 180 -30 -90   XYZ
    dof rx
    limits (-10.0 170.0)
  end
  begin
     id 20
     name lwrist
     direction 1 -4.4899e-011 4.8894e-028   
     length 1.32777   
     axis -2.56392e-016 90 90   XYZ
    dof ry
    limits (-180.0 0.0)
 end
  begin
     id 21 
     name lhand
     direction 1 -4.48908e-011 9.7788e-028   
     length 0.743904   
     axis -6.23971e-016 90 90   XYZ
    dof rx rz
    limits (-90.0 90.0)
           (-45.0 45.0)
  end
  begin
     id 22 
     name lfingers
     direction 1 -4.49068e-011 1.95576e-027   
     length 0.599754   
     axis -1.24794e-015 90 90   XYZ
    dof rx
    limits (0.0 90.0)
  end
  begin
     id 23
     name lthumb
     direction 0.707107 -6.34883e-011 0.707107   
     length 0.861131   
     axis -90 45 2.85299e-015   XYZ
    dof rx rz
    limits (-45.0 45.0)
           (-45.0 45.0)
  end
  begin
     id 24 
     name rclavicle
     direction -0.957921 0.286916 0.00811568   
     length 3.06817  
     axis 0 0 0   XYZ 
    dof ry rz
    limits (-10.0 20.0)
           (-20.0 0.0)
  end
  begin
     id 25 
     name rhumerus
     direction -1 -4.48971e-011 -3.07942e-027  
     length 4.77254   
     axis 180 30 90   XYZ
    dof rx ry rz
    limits (-90.0 60.0)
           (-90.0 90.0)
           (-90.0 90.0)
  end
  begin
     id 26 
     name rradius
     direction -1 -4.48957e-011 -9.6815e-028   
     length 2.75995   
     axis 180 30 90   XYZ
    dof rx
    limits (-10.0 170.0)
  end
  begin
     id 27 
     name rwrist
     direction -1 -4.48979e-011 4.8894e-028   
     length 1.37997   
     axis -2.56392e-016 -90 -90   XYZ
    dof ry
    limits (-180.0 0.0)
  end
  begin
     id 28
     name rhand
     direction -1 -4.48906e-011 9.7788e-028   
     length 0.701619   
     axis -6.23971e-016 -90 -90   XYZ
    dof rx rz
    limits (-90.0 90.0)
           (-45.0 45.0)
  end
  begin
     id 29
     name rfingers
     direction -1 -4.49018e-011 1.95576e-027   
     length 0.565663   
     axis -1.24794e-015 -90 -90   XYZ
    dof rx
    limits (0.0 90.0)
  end
  begin
     id 30
     name rthumb
     direction -0.707107 -6.34881e-011 0.707107   
     length 0.812183   
     axis -90 -45 -2.85299e-015   XYZ
    dof rx rz
    limits (-45.0 45.0)
           (-45.0 45.0)
  end
:hierarchy
  begin
    root lhipjoint rhipjoint lowerback
    lhipjoint lfemur
    lfemur ltibia
    ltibia lfoot
    lfoot ltoes
    rhipjoint rfemur
    rfemur rtibia
    rtibia rfoot
    rfoot rtoes
    lowerback upperback
    upperback thorax
    thorax lowerneck lclavicle rclavicle
    lowerneck upperneck
    upperneck head
    lclavicle lhumerus
    lhumerus lradius
    lradius lwrist
    lwrist lhand lthumb
    lhand lfingers
    rclavicle rhumerus
    rhumerus rradius
    rradius rwrist
    rwrist rhand rthumb
    rhand rfingers
  end

#!OML:ASF F:\VICON\USERDATA\INSTALL\rory3\rory3.ASF
:FULLY-SPECIFIED
:DEGREES
574
root 0.130428 15.4376 1.17258 -13.3437 -6.20256 -4.27825
lowerback -4.90101 -4.29549 -7.537
upperback -7.65681 -5.6404 -0.636101
thorax -4.61736 -2.44963 3.44941
lowerneck 4.63802 -3.06612 -10.6599
upperneck 9.61689 -7.24877 29.9363
head 3.37789 -3.38161 11.5742
rclavicle 9.14409e-015 1.66979e-014
rhumerus -52.4544 -16.3139 -53.1312
rradius 23.9642
rwrist 14.4865
rhand 2.08283 12.0941
rfingers 7.12502
rthumb 27.5838 -15.9045
lclavicle 9.14409e-015 1.66979e-014
lhumerus -55.7114 23.3192 41.3168
lradius 10.534
lwrist -24.1419
lhand -6.14012 8.83619
lfingers 7.12502
lthumb 19.6977 37.8582
rfemur 13.7611 8.36102 24.9013
rtibia 24.866
rfoot -19.8985 -11.8033
rtoes -5.40941
lfemur 15.7818 -2.12871 -13.513
ltibia 24.8959
lfoot -22.4183 10.1335
ltoes -12.6924
575
root 0.159221 15.4353 1.17667 -13.456 -6.14142 -4.1307
lowerback -4.95852 -4.24263 -7.25618
upperback -7.73152 -5.56891 -0.513547
thorax -4.68191 -2.42088 3.42412
lowerneck 4.77812 -3.13386 -10.7017
upperneck 9.4618 -7.29307 29.7587
head 3.3136 -3.42647 11.5079
rclavicle 1.82882e-014 -1.11319e-014
rhumerus -52.3979 -16.656 -52.6695
rradius 23.7146
rwrist 14.9571
rhand 2.10397 12.1258
rfingers 7.12502
rthumb 27.604 -15.8695
lclavicle 1.82882e-014 -1.11319e-014
lhumerus -55.7624 23.198 41.4471
lradius 10.4104
lwrist -24.5432
lhand -6.22532 8.74769
lfingers 7.12502
lthumb 19.6157 37.7781
rfemur 13.8849 8.51805 24.7148
rtibia 24.8881
rfoot -19.9902 -11.9323
rtoes -5.60656
lfemur 15.9568 -2.10835 -13.8068
ltibia 24.747
lfoot -22.3557 10.1582
ltoes -12.6506
576
root 0.186632 15.4398 1.18109 -13.5236 -6.01685 -3.92186
lowerback -5.06179 -4.22257 -7.07825
upperback -7.79901 -5.5338 -0.368347
thorax -4.69909 -2.40638 3.47331
lowerneck 4.93216 -3.17237 -10.7844
upperneck 9.22351 -7.27043 29.5439
head 3.20815 -3.44594 11.4359
rclavicle -3.4191e-014 1.15295e-014
rhumerus -52.2503 -16.8434 -52.2992
rradius 23.5046
rwrist 15.3153
rhand 2.01469 12.3859
rfingers 7.12502
rthumb 27.5186 -15.623
lclavicle -3.4191e-014 1.15295e-014
lhumerus -56.0426 23.5226 41.1119
lradius 10.3063
lwrist -25.5301
lhand -6.15233 8.72083
lfingers 7.12502
lthumb 19.6859 37.744
rfemur 13.9394 8.59436 24.448
rtibia 24.9448
rfoot -19.9449 -12.2686
rtoes -6.2533
lfemur 16.0679 -2.17635 -14.2028
ltibia 24.5876
lfoot -22.3188 10.2612
ltoes -12.7914
577
root 0.215936 15.4416 1.18844 -13.6223 -5.83471 -3.65872
lowerback -5.21968 -4.20062 -6.91943
upperback -7.7907 -5.48869 -0.266691
thorax -4.60825 -2.39289 3.48031
lowerneck 4.86327 -3.27222 -10.7774
upperneck 9.10022 -7.34056 29.2011
head 3.19138 -3.48575 11.2893
rclavicle -2.34566e-014 -1.11319e-014
rhumerus -52.0484 -17.0713 -52.036
rradius 23.3886
rwrist 15.6176
rhand 1.82343 12.7576
rfingers 7.12502
rthumb 27.3357 -15.2803
lclavicle -2.34566e-014 -1.11319e-014
lhumerus -56.0753 23.7482 41.0975
lradius 10.1772
lwrist -26.1449
lhand -6.18702 8.87445
lfingers 7.12502
lthumb 19.6526 37.9011
rfemur 14.0412 8.52095 24.0298
rtibia 24.9895
rfoot -19.9503 -12.3994
rtoes -6.61994
lfemur 16.2091 -2.30785 -14.7078
ltibia 24.4446
lfoot -22.3318 10.3879
ltoes -12.6658
578
root 0.24662 15.4403 1.19204 -13.645 -5.81701 -3.54837
lowerback -5.44029 -4.13967 -6.52559
upperback -7.81746 -5.39295 -0.12893
thorax -4.5391 -2.36378 3.39446
lowerneck 4.9725 -3.34581 -10.748
upperneck 8.90076 -7.36408 28.8785
head 3.10892 -3.51957 11.1522
rclavicle -6.04305e-014 -2.22639e-014
rhumerus -51.9177 -17.2138 -51.8357
rradius 23.2836
rwrist 15.7019
rhand 1.61097 13.0249
rfingers 7.12502
rthumb 27.1325 -15.0449
lclavicle -6.04305e-014 -2.22639e-014
lhumerus -55.9 23.4247 41.7212
lradius 10.1252
lwrist -25.933
lhand -6.197 9.04825
lfingers 7.12502
lthumb 19.643 38.0759
rfemur 14.0572 8.65653 23.821
rtibia 25.0607
rfoot -20.1038 -12.29
rtoes -6.26237
lfemur 16.3258 -2.38653 -15.0341
ltibia 24.2717
lfoot -22.3534 10.5254
ltoes -12.4197
579
root 0.27408 15.4419 1.19289 -13.6003 -5.96935 -3.62822
lowerback -5.65911 -4.05299 -5.96816
upperback -7.88337 -5.26727 0.129461
thorax -4.51623 -2.32227 3.34678
lowerneck 5.16481 -3.3588 -10.9108
upperneck 8.66062 -7.31421 28.6853
head 2.99383 -3.52979 11.1099
rclavicle 7.45443e-014 5.32743e-014
rhumerus -51.7865 -17.1625 -51.698
rradius 23.1774
rwrist 15.4725
rhand 1.25973 13.1999
rfingers 7.12502
rthumb 26.7964 -14.9219
lclavicle 7.45443e-014 5.32743e-014
lhumerus -55.9208 23.2662 42.1698
lradius 10.1118
lwrist -25.8816
lhand -6.18868 9.06834
lfingers 7.12502
lthumb 19.651 38.0951
rfemur 14.0093 9.02849 23.9495
rtibia 25.1208
rfoot -20.1439 -12.439
rtoes -6.10595
lfemur 16.4045 -2.31373 -15.0458
ltibia 24.0831
lfoot -22.3243 10.4987
ltoes -11.8353
